# Blender v2.91.2 OBJ File: ''
# www.blender.org
mtllib Gold.mtl
o Cube_Cube.001
v -1.488494 0.013530 3.062043
v -1.488494 0.337182 3.062043
v -1.488494 0.013530 -3.062043
v -1.488494 0.337182 -3.062043
v 1.488494 0.013530 3.062043
v 1.488494 0.337182 3.062043
v 1.488494 0.013530 -3.062043
v 1.488494 0.337182 -3.062043
v -1.162708 1.315958 2.391856
v -1.162708 1.315958 -2.391856
v 1.162708 1.315958 -2.391856
v 1.162708 1.315958 2.391856
v -2.988494 -1.292019 3.062043
v -2.988494 -0.968367 3.062043
v -2.988494 -1.292019 -3.062043
v -2.988494 -0.968367 -3.062043
v -0.011506 -1.292019 3.062043
v -0.011506 -0.968367 3.062043
v -0.011506 -1.292019 -3.062043
v -0.011506 -0.968367 -3.062043
v -2.662708 0.010409 2.391856
v -2.662708 0.010409 -2.391856
v -0.337292 0.010409 -2.391856
v -0.337292 0.010409 2.391856
v 0.011506 -1.292019 3.062043
v 0.011506 -0.968367 3.062043
v 0.011506 -1.292019 -3.062043
v 0.011506 -0.968367 -3.062043
v 2.988494 -1.292019 3.062043
v 2.988494 -0.968367 3.062043
v 2.988494 -1.292019 -3.062043
v 2.988494 -0.968367 -3.062043
v 0.337292 0.010409 2.391856
v 0.337292 0.010409 -2.391856
v 2.662708 0.010409 -2.391856
v 2.662708 0.010409 2.391856
vt 0.375000 0.000000
vt 0.625000 0.000000
vt 0.625000 0.250000
vt 0.375000 0.250000
vt 0.625000 0.500000
vt 0.375000 0.500000
vt 0.625000 0.750000
vt 0.375000 0.750000
vt 0.625000 1.000000
vt 0.375000 1.000000
vt 0.125000 0.500000
vt 0.125000 0.750000
vt 0.625000 0.000000
vt 0.625000 0.250000
vt 0.625000 0.500000
vt 0.875000 0.500000
vt 0.875000 0.750000
vt 0.625000 0.750000
vt 0.625000 1.000000
vt 0.375000 0.000000
vt 0.625000 0.000000
vt 0.625000 0.250000
vt 0.375000 0.250000
vt 0.625000 0.500000
vt 0.375000 0.500000
vt 0.625000 0.750000
vt 0.375000 0.750000
vt 0.625000 1.000000
vt 0.375000 1.000000
vt 0.125000 0.500000
vt 0.125000 0.750000
vt 0.625000 0.000000
vt 0.625000 0.250000
vt 0.625000 0.500000
vt 0.875000 0.500000
vt 0.875000 0.750000
vt 0.625000 0.750000
vt 0.625000 1.000000
vt 0.375000 0.000000
vt 0.625000 0.000000
vt 0.625000 0.250000
vt 0.375000 0.250000
vt 0.625000 0.500000
vt 0.375000 0.500000
vt 0.625000 0.750000
vt 0.375000 0.750000
vt 0.625000 1.000000
vt 0.375000 1.000000
vt 0.125000 0.500000
vt 0.125000 0.750000
vt 0.625000 0.000000
vt 0.625000 0.250000
vt 0.625000 0.500000
vt 0.875000 0.500000
vt 0.875000 0.750000
vt 0.625000 0.750000
vt 0.625000 1.000000
vn -1.0000 0.0000 0.0000
vn 0.0000 0.0000 -1.0000
vn 1.0000 0.0000 0.0000
vn 0.0000 0.0000 1.0000
vn 0.0000 -1.0000 0.0000
vn -0.9488 0.3158 0.0000
vn 0.0000 1.0000 0.0000
vn 0.0000 0.5650 0.8251
vn 0.0000 0.5650 -0.8251
vn 0.9488 0.3158 0.0000
usemtl None
s off
f 1/1/1 2/2/1 4/3/1 3/4/1
f 3/4/2 4/3/2 8/5/2 7/6/2
f 7/6/3 8/5/3 6/7/3 5/8/3
f 5/8/4 6/7/4 2/9/4 1/10/4
f 3/11/5 7/6/5 5/8/5 1/12/5
f 4/3/6 2/2/6 9/13/6 10/14/6
f 11/15/7 10/16/7 9/17/7 12/18/7
f 2/9/8 6/7/8 12/18/8 9/19/8
f 8/5/9 4/3/9 10/14/9 11/15/9
f 6/7/10 8/5/10 11/15/10 12/18/10
f 13/20/1 14/21/1 16/22/1 15/23/1
f 15/23/2 16/22/2 20/24/2 19/25/2
f 19/25/3 20/24/3 18/26/3 17/27/3
f 17/27/4 18/26/4 14/28/4 13/29/4
f 15/30/5 19/25/5 17/27/5 13/31/5
f 16/22/6 14/21/6 21/32/6 22/33/6
f 23/34/7 22/35/7 21/36/7 24/37/7
f 14/28/8 18/26/8 24/37/8 21/38/8
f 20/24/9 16/22/9 22/33/9 23/34/9
f 18/26/10 20/24/10 23/34/10 24/37/10
f 25/39/1 26/40/1 28/41/1 27/42/1
f 27/42/2 28/41/2 32/43/2 31/44/2
f 31/44/3 32/43/3 30/45/3 29/46/3
f 29/46/4 30/45/4 26/47/4 25/48/4
f 27/49/5 31/44/5 29/46/5 25/50/5
f 28/41/6 26/40/6 33/51/6 34/52/6
f 35/53/7 34/54/7 33/55/7 36/56/7
f 26/47/8 30/45/8 36/56/8 33/57/8
f 32/43/9 28/41/9 34/52/9 35/53/9
f 30/45/10 32/43/10 35/53/10 36/56/10
