# Blender v2.83.5 OBJ File: ''
# www.blender.org
mtllib log.mtl
o vsn_mesh_1__mesh_1_.002
v -8.121301 11.407790 -15.278810
v -8.246099 12.680490 -61.717880
v -17.240499 4.782340 -15.278810
v -17.894300 5.465410 -59.671120
v -8.141999 12.532189 24.475096
v 3.808690 12.544490 23.528996
v 3.150530 11.407790 -15.278810
v 13.484270 5.499070 22.763296
v 12.269660 4.782350 -15.278810
v 17.188980 -5.913030 22.470396
v 15.752860 -5.937830 -15.278810
v 13.507720 -17.332710 22.762396
v 12.269670 -17.555609 -15.278810
v 3.846620 -24.398109 23.527496
v 3.150540 -23.807009 -15.278810
v -8.104100 -24.410410 24.473597
v -8.121301 -23.283409 -15.278810
v -17.779699 -17.365009 25.239298
v -17.240400 -16.658010 -15.278810
v -8.104100 -24.410410 24.473597
v -8.121301 -23.283409 -15.278810
v -21.484400 -5.952900 25.532198
v -20.723600 -5.937840 -15.278810
v -17.803099 5.466820 25.240198
v 12.521379 5.093370 -18.790970
v 3.042800 11.272989 -28.121559
v 15.972420 -5.940930 -28.121540
v 28.164001 16.512089 -44.447708
v 22.450699 12.383190 -39.579910
v 22.161200 13.821890 -38.177208
v 23.721699 11.501989 -38.177208
v 22.450699 12.383190 -39.579910
v 23.867800 13.412789 -36.655708
v -8.121301 11.407790 -15.278810
v 12.908110 5.374350 -35.793339
v 13.431230 5.754410 -33.351650
v 10.215059 8.685249 -28.843359
v 13.773120 6.002810 -23.456230
v 15.224760 1.789980 -28.843359
v 13.431230 5.754410 -33.351650
v 10.215059 8.685249 -28.843359
v 16.873129 8.264700 -35.020187
v 15.281449 10.458290 -32.249599
v 17.754200 8.904830 -29.020870
v 13.773120 6.002810 -23.456230
v 15.224760 1.789980 -28.843359
v 18.444069 6.105370 -32.249599
v 13.431230 5.754410 -33.351650
v 16.873129 8.264700 -35.020187
v 3.524780 12.355390 -64.214973
v -8.246099 12.680490 -61.717880
v -17.894300 5.465410 -59.671120
v -21.534199 -5.940100 -58.898926
v -17.240499 4.782340 -15.278810
v -17.894300 -17.345610 -59.671104
v -20.723600 -5.937840 -15.278810
v -17.240400 -16.658010 -15.278810
v -8.246099 -24.560709 -61.717880
v -8.121301 -23.283409 -15.278810
v -8.246099 -24.560709 -61.717880
v 3.922370 -24.770210 -64.299278
v -8.121301 -23.283409 -15.278810
v 3.150540 -23.807009 -15.278810
v 13.969120 -17.684710 -66.430679
v 12.269670 -17.555609 -15.278810
v 15.972420 -5.940930 -28.121540
v 17.291620 -5.940380 -67.135475
v 13.568250 5.713930 -66.345573
v 12.908110 5.374350 -35.793339
v 3.042800 11.272989 -28.121559
v -8.121301 11.407790 -15.278810
v 3.922370 -24.770210 -64.299278
v -8.246099 -24.560709 -61.717880
v 3.524780 12.355390 -64.214973
v -8.246099 12.680490 -61.717880
v -17.894300 -17.345610 -59.671104
v -17.894300 5.465410 -59.671120
v -21.534199 -5.940100 -58.898926
v 13.969120 -17.684710 -66.430679
v 13.568250 5.713930 -66.345573
v 17.291620 -5.940380 -67.135475
v 3.808690 12.544490 23.528996
v -8.141999 12.532189 24.475096
v 3.846620 -24.398109 23.527496
v -8.104100 -24.410410 24.473597
v -17.803099 5.466820 25.240198
v -17.779699 -17.365009 25.239298
v -21.484400 -5.952900 25.532198
v 13.484270 5.499070 22.763296
v 13.507720 -17.332710 22.762396
v 17.188980 -5.913030 22.470396
v 28.164001 16.512089 -44.447708
v 31.803699 19.156490 -47.389111
v 27.284599 15.873290 -48.655407
v 32.930099 19.974890 -51.960907
v 32.016701 19.311289 -59.294807
v 29.224600 17.282690 -56.476608
v 27.473900 16.010790 -52.937107
v 30.416199 18.148390 -41.110508
v 32.219898 19.458889 -46.386410
v 35.881199 22.118990 -44.850609
v 36.687298 22.704689 -38.496307
v 40.167797 25.233389 -39.656010
v 33.340298 20.272890 -38.803108
vt 0.305668 0.879794
vt 0.318164 0.887964
vt 0.302649 0.891482
vt 0.322030 0.900662
vt 0.318895 0.921032
vt 0.309310 0.913205
vt 0.303299 0.903374
vt 0.313400 0.870525
vt 0.319593 0.885179
vt 0.332162 0.880914
vt 0.334930 0.863265
vt 0.346879 0.866485
vt 0.323439 0.864117
vt 0.145154 0.240105
vt 0.145912 0.304224
vt 0.114037 0.240105
vt 0.114501 0.298180
vt 0.146050 0.175717
vt 0.177320 0.178495
vt 0.176557 0.240105
vt 0.208635 0.180744
vt 0.208255 0.240105
vt 0.240072 0.181604
vt 0.240142 0.240105
vt 0.271516 0.180747
vt 0.273973 0.240105
vt 0.302850 0.178500
vt 0.304140 0.240105
vt 0.334142 0.175721
vt 0.335130 0.240105
vt 0.051465 0.173473
vt 0.052145 0.240105
vt 0.020040 0.175721
vt 0.021028 0.240105
vt 0.083058 0.172613
vt 0.083091 0.240105
vt 0.114644 0.173471
vt 0.207982 0.250579
vt 0.176386 0.278406
vt 0.240144 0.278405
vt 0.254630 0.913123
vt 0.265172 0.890045
vt 0.259795 0.888238
vt 0.249187 0.888051
vt 0.244104 0.890041
vt 0.254639 0.887153
vt 0.145154 0.240105
vt 0.208002 0.301284
vt 0.208026 0.294003
vt 0.196794 0.280557
vt 0.208041 0.264492
vt 0.219265 0.280557
vt 0.281872 0.856533
vt 0.272889 0.845513
vt 0.273719 0.867823
vt 0.266618 0.862043
vt 0.254650 0.857297
vt 0.254657 0.836655
vt 0.236418 0.845506
vt 0.242679 0.862039
vt 0.227428 0.856524
vt 0.235573 0.867816
vt 0.176766 0.311600
vt 0.145912 0.304224
vt 0.114501 0.298180
vt 0.083091 0.295899
vt 0.114037 0.240105
vt 0.051681 0.298180
vt 0.083091 0.240105
vt 0.052145 0.240105
vt 0.020271 0.304225
vt 0.021028 0.240105
vt 0.334373 0.304225
vt 0.302962 0.311849
vt 0.335130 0.240105
vt 0.304140 0.240105
vt 0.271553 0.318143
vt 0.273973 0.240105
vt 0.240144 0.278405
vt 0.240143 0.320225
vt 0.208318 0.317892
vt 0.208002 0.301284
vt 0.176386 0.278406
vt 0.145154 0.240105
vt 0.261701 0.704019
vt 0.230453 0.703492
vt 0.260679 0.610758
vt 0.230452 0.609941
vt 0.205677 0.685367
vt 0.205677 0.628066
vt 0.196330 0.656717
vt 0.287500 0.686219
vt 0.286470 0.627441
vt 0.296031 0.656718
vt 0.229751 0.494389
vt 0.199517 0.494420
vt 0.229847 0.587557
vt 0.199613 0.587588
vt 0.175076 0.512239
vt 0.175135 0.569820
vt 0.165763 0.541039
vt 0.254228 0.512157
vt 0.254287 0.569738
vt 0.263600 0.540938
vn -0.5878 0.8090 0.0000
vn -0.4112 0.9115 -0.0095
vn -0.5944 0.8038 0.0215
vn -0.7421 0.6702 -0.0057
vn -0.5958 0.8028 0.0211
vn -0.3252 0.9452 -0.0269
vn 0.2943 0.9551 -0.0327
vn 0.3087 0.9509 -0.0229
vn 0.8030 0.5948 -0.0369
vn 0.8004 0.5991 0.0191
vn 0.9994 0.0033 -0.0351
vn 0.9999 0.0065 -0.0065
vn 0.8055 -0.5919 -0.0265
vn 0.8449 -0.5347 -0.0167
vn 0.2934 -0.9556 -0.0258
vn 0.2738 -0.9616 -0.0157
vn -0.0012 -0.9996 -0.0283
vn -0.0378 -0.9991 -0.0170
vn -0.8144 -0.5799 -0.0208
vn -0.8097 -0.5864 -0.0213
vn -0.5893 -0.8076 -0.0220
vn -0.5876 -0.8088 -0.0227
vn -0.9998 -0.0008 -0.0190
vn -0.9941 0.1077 -0.0063
vn -0.8155 0.5784 -0.0216
vn 0.7666 0.6237 0.1524
vn 0.3052 0.9522 0.0121
vn 0.9981 0.0569 0.0206
vn 0.5726 0.4187 -0.7048
vn -0.7277 0.3852 -0.5675
vn -0.5061 0.8547 -0.1156
vn 0.6363 -0.7598 -0.1336
vn 0.0932 -0.8029 -0.5888
vn 0.6259 0.4677 0.6241
vn 0.0000 0.9999 -0.0105
vn 0.7611 0.5887 -0.2723
vn 0.7446 0.6089 -0.2733
vn 0.3266 0.9414 -0.0837
vn 0.7679 0.5579 0.3148
vn 0.9952 0.0888 -0.0396
vn -0.6145 0.3849 -0.6886
vn -0.2756 0.9566 0.0943
vn -0.6797 0.3276 -0.6563
vn -0.4625 0.8772 -0.1288
vn 0.5960 0.4330 0.6762
vn 0.6068 0.4418 0.6608
vn 0.8265 -0.5558 0.0888
vn 0.6910 -0.7094 -0.1384
vn 0.1992 -0.7034 -0.6822
vn 0.1229 -0.7512 -0.6485
vn 0.3367 0.9412 0.0276
vn 0.0357 0.9989 0.0298
vn -0.9521 0.3051 0.0187
vn -0.9998 0.0003 0.0190
vn -0.9511 0.3083 0.0178
vn -0.7987 -0.6014 0.0206
vn -0.9511 -0.3083 0.0186
vn -0.8097 -0.5863 0.0222
vn -0.5944 -0.8038 0.0216
vn -0.5876 -0.8088 0.0238
vn -0.0114 -0.9995 0.0275
vn 0.3363 -0.9414 0.0269
vn -0.0410 -0.9989 0.0202
vn 0.2730 -0.9618 0.0213
vn 0.8340 -0.5508 0.0306
vn 0.7303 -0.6826 0.0260
vn 0.9933 -0.1105 0.0318
vn 0.9993 0.0159 0.0338
vn 0.8173 0.5755 0.0279
vn 0.7993 0.6002 0.0290
vn 0.2052 0.9782 0.0298
vn 0.0434 0.9987 0.0273
vn -0.2075 0.0000 -0.9782
vn 0.0789 0.0000 0.9969
usemtl lambert2_mat.001
s off
f 92/1/1 93/2/1 94/3/1
f 95/4/1 96/5/1 97/6/1
f 93/2/1 95/4/1 94/3/1
f 95/4/1 98/7/1 94/3/1
f 95/4/1 97/6/1 98/7/1
f 92/1/1 99/8/1 100/9/1
f 101/10/1 102/11/1 103/12/1
f 100/9/1 99/8/1 101/10/1
f 99/8/1 104/13/1 101/10/1
f 101/10/1 104/13/1 102/11/1
s 1
f 1/14/2 2/15/3 3/16/4
f 2/15/3 4/17/5 3/16/4
f 5/18/6 6/19/7 1/14/2
f 6/19/7 7/20/8 1/14/2
f 8/21/9 9/22/10 6/19/7
f 9/22/10 7/20/8 6/19/7
f 10/23/11 11/24/12 8/21/9
f 11/24/12 9/22/10 8/21/9
f 12/25/13 13/26/14 10/23/11
f 13/26/14 11/24/12 10/23/11
f 14/27/15 15/28/16 12/25/13
f 15/28/16 13/26/14 12/25/13
f 16/29/17 17/30/18 14/27/15
f 17/30/18 15/28/16 14/27/15
f 18/31/19 19/32/20 20/33/21
f 19/32/20 21/34/22 20/33/21
f 22/35/23 23/36/24 18/31/19
f 23/36/24 19/32/20 18/31/19
f 24/37/25 3/16/4 22/35/23
f 3/16/4 23/36/24 22/35/23
f 5/18/6 1/14/2 24/37/25
f 1/14/2 3/16/4 24/37/25
f 25/38/26 26/39/27 9/22/10
f 26/39/27 7/20/8 9/22/10
f 27/40/28 25/38/26 11/24/12
f 25/38/26 9/22/10 11/24/12
f 28/41/29 29/42/30 30/43/31
f 28/41/29 31/44/32 32/45/33
f 28/41/29 33/46/34 31/44/32
f 28/41/29 30/43/31 33/46/34
f 26/39/27 34/47/35 7/20/8
f 13/26/14 27/40/28 11/24/12
f 35/48/36 26/39/27 36/49/37
f 26/39/27 37/50/38 36/49/37
f 38/51/39 37/50/38 25/38/26
f 37/50/38 26/39/27 25/38/26
f 27/40/28 39/52/40 25/38/26
f 39/52/40 38/51/39 25/38/26
f 27/40/28 35/48/36 39/52/40
f 35/48/36 36/49/37 39/52/40
f 40/53/41 41/54/42 42/55/43
f 41/54/42 43/56/44 42/55/43
f 44/57/45 43/56/44 45/58/46
f 43/56/44 41/54/42 45/58/46
f 45/58/46 46/59/47 44/57/45
f 46/59/47 47/60/48 44/57/45
f 46/59/47 48/61/49 47/60/48
f 48/61/49 49/62/50 47/60/48
f 42/55/43 43/56/44 29/42/30
f 43/56/44 30/43/31 29/42/30
f 47/60/48 49/62/50 31/44/32
f 49/62/50 32/45/33 31/44/32
f 44/57/45 47/60/48 33/46/34
f 47/60/48 31/44/32 33/46/34
f 30/43/31 43/56/44 33/46/34
f 43/56/44 44/57/45 33/46/34
f 26/39/27 50/63/51 51/64/52
f 52/65/53 53/66/54 54/67/55
f 53/66/54 23/36/24 54/67/55
f 53/66/54 55/68/56 56/69/57
f 55/68/56 57/70/58 56/69/57
f 55/68/56 58/71/59 57/70/58
f 58/71/59 59/72/60 57/70/58
f 60/73/61 61/74/62 62/75/63
f 61/74/62 63/76/64 62/75/63
f 61/74/62 64/77/65 63/76/64
f 64/77/65 65/78/66 63/76/64
f 66/79/67 64/77/65 67/80/68
f 67/80/68 68/81/69 66/79/67
f 68/81/69 69/82/70 66/79/67
f 68/81/69 50/63/51 69/82/70
f 50/63/51 70/83/71 69/82/70
f 70/83/71 51/64/52 71/84/72
f 66/79/67 65/78/66 64/77/65
f 72/85/73 73/86/73 74/87/73
f 73/86/73 75/88/73 74/87/73
f 73/86/73 76/89/73 75/88/73
f 76/89/73 77/90/73 75/88/73
f 76/89/73 78/91/73 77/90/73
f 79/92/73 72/85/73 80/93/73
f 72/85/73 74/87/73 80/93/73
f 81/94/73 79/92/73 80/93/73
f 82/95/74 83/96/74 84/97/74
f 83/96/74 85/98/74 84/97/74
f 83/96/74 86/99/74 85/98/74
f 86/99/74 87/100/74 85/98/74
f 86/99/74 88/101/74 87/100/74
f 89/102/74 82/95/74 90/103/74
f 82/95/74 84/97/74 90/103/74
f 89/102/74 90/103/74 91/104/74
