# 3ds Max Wavefront OBJ Exporter v0.97b - (c)2007 guruware
# File Created: 06.01.2020 17:54:21

#
# object tetrahedron
#

v  0.025907 -0.821670 0.577350
v  0.842403 -0.005174 -0.577350
v  0.025907 0.811323 0.577350
v  -0.790590 -0.005174 -0.577350
# 4 vertices

vn 0.816497 0.000000 0.577350
vn 0.000000 0.816497 -0.577350
vn -0.816497 0.000000 0.577350
vn 0.000000 -0.816497 -0.577350
# 4 vertex normals

vt -0.500000 0.500000 0.000000
vt 0.000000 -0.500000 0.500000
vt 0.500000 0.500000 0.000000
vt -0.500000 -0.500000 0.000000
vt 0.500000 0.000000 0.500000
vt 0.000000 -0.500000 -0.500000
vt 0.500000 0.000000 -0.500000
# 7 texture coords

g tetrahedron
f 1/1/1 2/2/1 3/3/1 
f 2/1/2 4/4/2 3/5/2 
f 4/6/3 1/1/3 3/3/3 
f 4/4/4 2/1/4 1/7/4 
# 4 faces

