# Blender v2.91.2 OBJ File: 'Maul.blend'
# www.blender.org
mtllib Maul.mtl
o Spear_Cylinder001
v 0.015748 -0.835799 0.061680
v 0.104637 -0.835799 -0.012904
v 0.124790 0.372478 0.021994
v 0.104637 0.372478 -0.012903
v 0.131785 -0.835799 0.061680
v 0.035902 -0.835799 -0.052590
v 0.073767 -0.835799 -0.038812
v -0.042270 -0.835799 -0.038812
v -0.004397 -0.835799 -0.052590
v -0.093293 -0.835799 0.021994
v -0.073140 -0.835799 -0.012904
v -0.093293 -0.835799 0.101367
v -0.100289 -0.835799 0.061680
v -0.042270 -0.835799 0.162173
v -0.073140 -0.835799 0.136273
v 0.035902 -0.835799 0.175959
v -0.004397 -0.835799 0.175959
v 0.104637 -0.835799 0.136273
v 0.073767 -0.835799 0.162173
v 0.124790 -0.835799 0.101367
v 0.124790 -0.835799 0.021994
v 0.993345 5.374444 -0.260713
v 0.934414 5.374444 0.412439
v 0.073767 0.372478 -0.038812
v -0.042271 0.372478 -0.038812
v -0.093294 0.372478 0.021994
v -0.093294 0.372478 0.101367
v -0.042271 0.372478 0.162173
v 0.035902 0.372478 0.175959
v -0.073141 5.205584 -0.012903
v 0.015748 5.205584 0.061680
v 0.104637 0.372478 0.136272
v 0.124790 0.372478 0.101367
v 0.131785 0.372478 0.061681
v 0.131785 1.580755 0.061680
v 0.073767 1.580755 -0.038812
v 0.035902 1.580755 -0.052590
v -0.004398 0.372478 -0.052590
v -0.004398 1.580755 -0.052590
v -0.042271 1.580755 -0.038812
v -0.073140 0.372478 -0.012903
v -0.073140 1.580755 -0.012903
v -0.093294 1.580755 0.021994
v -0.100289 0.372478 0.061681
v -0.100289 1.580755 0.061680
v -0.093294 1.580755 0.101367
v -0.073140 0.372478 0.136272
v -0.073140 1.580755 0.136272
v 0.035902 0.372478 -0.052590
v -0.004398 0.372478 0.175959
v -0.004398 1.580755 0.175959
v 0.035902 1.580755 0.175959
v 0.073767 0.372478 0.162172
v 0.073767 1.580755 0.162172
v 0.104637 1.580755 0.136272
v 0.124790 1.580755 0.101367
v 0.161780 3.953551 0.061680
v 0.073767 3.997306 -0.038812
v 0.073767 5.205584 -0.038811
v 0.073767 2.789030 -0.038812
v 0.035901 2.789030 -0.052590
v -0.004398 2.789030 -0.052590
v -0.042271 2.789030 -0.038812
v -0.073141 2.789030 -0.012904
v -0.121480 3.953551 0.021994
v -0.130284 3.953551 0.061680
v -0.093294 3.953551 0.101367
v -0.073141 2.789030 0.136273
v -0.042271 2.789030 0.162173
v -0.004398 2.789030 0.175959
v 0.035901 2.789030 0.175959
v 0.073767 2.789030 0.162173
v 0.104636 2.789030 0.136273
v 0.152976 3.953551 0.101367
v 0.035901 3.997306 -0.052590
v -0.004398 3.997306 -0.052590
v -0.042271 3.997306 -0.038812
v -0.073141 3.997306 -0.012904
v -0.902916 5.374444 -0.289081
v -0.961851 5.374444 0.469404
v -0.093294 3.997306 0.101367
v -0.073141 3.997306 0.136272
v -0.042271 3.997306 0.162173
v -0.004398 3.997306 0.175959
v 0.035901 3.997306 0.175959
v 0.073767 3.997306 0.162172
v 0.104636 3.997306 0.136272
v 0.264720 5.205584 0.061681
v 0.035901 5.205584 -0.052590
v -0.004398 5.205584 -0.052590
v -0.042271 5.205584 -0.038811
v -0.218217 5.205584 0.046914
v -0.233227 5.205584 0.061681
v -0.073141 5.205584 0.136272
v -0.042271 5.205584 0.162172
v -0.004398 5.205584 0.175959
v 0.035901 5.205584 0.175959
v 0.073767 5.205584 0.162172
v 0.104644 5.205584 0.136272
v 0.249712 5.205584 0.076448
v -0.042271 1.580755 0.162172
v 0.124790 3.997306 0.021994
v 0.104644 3.997306 -0.012904
v 0.124790 1.580755 0.021994
v 0.104637 1.580755 -0.012903
v -0.093294 5.205584 0.101367
v 0.124790 3.953551 0.021994
v 0.104636 2.789030 -0.012904
v 0.124790 5.205584 0.021994
v 0.104644 5.205584 -0.012903
v 0.008384 5.226252 0.058944
v 0.015749 5.226252 0.061682
v 0.020557 5.226252 0.057993
v 0.036381 5.226252 0.061682
v 0.017419 5.226252 0.057487
v 0.014080 5.226252 0.057487
v 0.010942 5.226252 0.057993
v -0.003637 5.226252 0.061139
v -0.004880 5.226252 0.061682
v 0.008384 5.226252 0.064420
v 0.010942 5.226252 0.065371
v 0.014080 5.226252 0.065877
v 0.017419 5.226252 0.065877
v 0.020557 5.226252 0.065371
v 0.023116 5.226252 0.064420
v 0.035137 5.226252 0.062224
v 0.006714 5.226252 0.063139
v 0.024785 5.226252 0.060225
v 0.023116 5.226252 0.058944
v 0.993345 3.722247 -0.260713
v 0.934414 3.722246 0.412439
v 0.161780 3.909913 0.061680
v -0.121480 3.909913 0.021994
v -0.130284 3.909913 0.061680
v 0.152976 3.909913 0.101367
v -0.902916 3.722247 -0.289081
v -0.961851 3.722246 0.469404
vt 0.500000 0.000000
vt 0.805600 0.000000
vt 0.750000 0.000000
vt 0.916700 0.000000
vt 0.861100 0.000000
vt 0.027800 0.000000
vt -0.027800 0.000000
vt 0.138900 0.000000
vt 0.083300 0.000000
vt 0.250000 0.000000
vt 0.194400 0.000000
vt 0.361100 0.000000
vt 0.305600 0.000000
vt 0.472200 0.000000
vt 0.416700 0.000000
vt 0.583300 0.000000
vt 0.527800 0.000000
vt 0.694400 0.000000
vt 0.638900 0.000000
vt 0.750000 0.200000
vt 0.805600 0.200000
vt 0.861100 0.200000
vt 0.972200 0.000000
vt 0.916700 0.200000
vt -0.027800 0.200000
vt 0.027800 0.200000
vt 0.138900 0.200000
vt 0.083300 0.200000
vt 0.194400 0.200000
vt 0.250000 0.200000
vt 0.361100 0.200000
vt 0.305600 0.200000
vt 0.416700 0.200000
vt 0.472200 0.200000
vt 0.527800 0.200000
vt 0.583300 0.200000
vt 0.638900 0.200000
vt 0.694400 0.200000
vt 0.805600 0.400000
vt 0.750000 0.400000
vt 0.861100 0.400000
vt 0.972200 0.200000
vt 0.916700 0.400000
vt -0.027800 0.400000
vt 0.027800 0.400000
vt 0.083300 0.400000
vt 0.138900 0.400000
vt 0.194400 0.400000
vt 0.250000 0.400000
vt 0.305600 0.400000
vt 0.361100 0.400000
vt 0.416700 0.400000
vt 0.472200 0.400000
vt 0.527800 0.400000
vt 0.583300 0.400000
vt 0.638900 0.400000
vt 0.694400 0.400000
vt 0.805600 0.600000
vt 0.750000 0.600000
vt 0.861100 0.600000
vt 0.972200 0.400000
vt 0.916700 0.600000
vt 0.027800 0.600000
vt -0.027800 0.600000
vt 0.083300 0.600000
vt 0.138900 0.600000
vt 0.194400 0.600000
vt 0.305600 0.600000
vt 0.250000 0.600000
vt 0.361100 0.600000
vt 0.472200 0.600000
vt 0.416700 0.600000
vt 0.583300 0.600000
vt 0.527800 0.600000
vt 0.638900 0.600000
vt 0.694400 0.600000
vt 0.805600 0.800000
vt 0.750000 0.800000
vt 0.861100 0.800000
vt 0.972200 0.600000
vt 0.916700 0.800000
vt -0.027800 0.800000
vt 0.083300 0.800000
vt 0.027800 0.800000
vt 0.138900 0.800000
vt 0.194400 0.800000
vt 0.305600 0.800000
vt 0.250000 0.800000
vt 0.361100 0.800000
vt 0.416700 0.800000
vt 0.472200 0.800000
vt 0.583300 0.800000
vt 0.527800 0.800000
vt 0.638900 0.800000
vt 0.694400 0.800000
vt 0.750000 1.000000
vt 0.805600 1.000000
vt 0.861100 1.000000
vt 0.972200 0.800000
vt 0.916700 1.000000
vt -0.027800 1.000000
vt 0.027800 1.000000
vt 0.083300 1.000000
vt 0.194400 1.000000
vt 0.138900 1.000000
vt 0.250000 1.000000
vt 0.305600 1.000000
vt 0.361100 1.000000
vt 0.416700 1.000000
vt 0.472200 1.000000
vt 0.527800 1.000000
vt 0.583300 1.000000
vt 0.694400 1.000000
vt 0.638900 1.000000
vt 0.500000 1.000000
vt 0.694400 1.000000
vt 0.083300 1.000000
vt 0.805600 1.000000
vt 0.861100 1.000000
vt 0.916700 1.000000
vt 0.527800 1.000000
vt 0.305600 1.000000
vt 0.361100 1.000000
vt 0.472200 1.000000
vt 0.194400 1.000000
vt 0.027800 1.000000
vt 0.138900 1.000000
vt -0.027800 1.000000
vt 0.750000 1.000000
vt 0.638900 1.000000
vt 0.416700 1.000000
vt 0.583300 1.000000
vt 0.500000 1.000000
vt 0.250000 1.000000
vt 0.972200 1.000000
vt 0.972200 1.000000
vt 0.750000 0.600000
vt 0.250000 0.800000
vt 0.250000 0.600000
vt 0.194400 0.800000
vt 0.194400 0.600000
vt 0.750000 0.800000
vt 0.694400 0.800000
vt 0.694400 0.600000
vt -0.019700 1.000000
vn 0.0000 -1.0000 -0.0000
vn 0.9848 0.0000 -0.1736
vn 0.8660 0.0000 -0.5001
vn 0.6429 0.0000 -0.7660
vn 0.3419 0.0000 -0.9397
vn 0.0000 -0.0000 -1.0000
vn -0.3419 -0.0000 -0.9397
vn -0.6429 -0.0000 -0.7660
vn -0.8660 0.0000 -0.5001
vn -0.9848 -0.0000 -0.1736
vn -0.9848 -0.0000 0.1736
vn -0.8660 -0.0000 0.5000
vn -0.6428 0.0000 0.7661
vn -0.3421 -0.0000 0.9397
vn 0.0000 -0.0000 1.0000
vn 0.3421 -0.0000 0.9397
vn 0.6427 0.0000 0.7661
vn 0.8660 0.0000 0.5000
vn 0.9848 0.0000 0.1736
vn 0.3420 -0.0000 -0.9397
vn 0.7315 -0.0092 -0.6818
vn -0.9848 -0.0117 -0.1736
vn -0.7315 -0.0092 0.6818
vn -0.6427 -0.0000 0.7661
vn 0.9848 -0.0117 0.1736
vn 0.3906 -0.4150 -0.8217
vn 0.8661 0.0000 -0.5000
vn -0.5853 0.0000 -0.8108
vn -0.8429 -0.5045 -0.1870
vn -0.3563 -0.4444 0.8220
vn 0.5854 0.0000 0.8107
vn 0.8429 -0.5045 0.1870
vn -0.4185 0.0782 -0.9049
vn 0.6428 0.0000 -0.7661
vn -0.3812 0.0000 -0.9245
vn 0.1602 0.9736 0.1628
vn 0.5017 0.0864 0.8607
vn 0.3812 -0.0000 0.9245
vn -0.1602 0.9736 -0.1628
vn 0.0000 1.0000 0.0000
vn -0.0811 -0.9771 -0.1966
vn 0.0636 -0.9825 0.1748
vn -0.1158 -0.9817 0.1512
vn -0.0648 -0.9826 0.1742
vn -0.3408 0.0831 -0.9364
vn 0.0000 -0.9828 -0.1845
vn 0.1158 -0.9817 -0.1509
vn 0.9839 0.0442 0.1734
vn 0.0811 -0.9771 0.1966
vn -0.9839 -0.0442 0.1734
vn -0.6376 -0.1266 0.7599
vn 0.0000 -0.9828 0.1845
vn -0.0898 -0.9918 -0.0912
vn -0.1214 -0.9820 -0.1447
vn 0.6377 0.1265 0.7599
vn 0.0290 -0.9833 -0.1798
vn 0.8606 -0.1115 -0.4969
vn 0.1214 -0.9820 0.1447
vn -0.8606 0.1116 -0.4969
vn -0.0279 -0.0001 0.9996
vn -0.0636 -0.9825 -0.1748
vn 0.0473 -0.9252 -0.3765
vn -0.0290 -0.9833 0.1797
vn 0.0000 -0.0001 1.0000
vn -0.0473 -0.9252 0.3766
vn 0.0647 -0.9826 -0.1741
vn 0.0898 -0.9918 0.0912
vn 0.9763 0.0000 0.2166
vn 0.4402 0.0000 0.8979
vn -0.3699 0.0000 0.9291
vn 0.9962 -0.0000 0.0872
vn 0.3615 -0.0000 0.9324
vn -0.9763 0.0000 -0.2166
vn 0.3698 0.0000 -0.9291
vn -0.9970 0.0000 -0.0775
vn -0.7111 -0.0084 -0.7031
vn -0.9762 -0.0123 -0.2165
vn 0.7111 -0.0084 0.7030
vn 0.9762 -0.0123 0.2165
vn 0.7315 0.0000 -0.6818
vn 0.8660 -0.0000 -0.5000
vn -0.3077 -0.3619 -0.8800
vn -0.8694 -0.4894 -0.0676
vn -0.7315 0.0000 0.6818
vn 0.3078 -0.3619 0.8799
vn 0.8680 -0.4907 0.0760
vn 0.2729 0.0000 -0.9621
vn 0.4579 0.0987 -0.8835
vn 0.2354 0.9717 0.0183
vn -0.2728 -0.0000 0.9621
vn 0.6427 -0.0000 0.7662
vn -0.4579 0.0987 0.8835
vn -0.2343 0.9719 -0.0205
vn -0.0423 -0.9719 -0.2316
vn 0.0290 -0.9833 0.1798
vn -0.1662 -0.9814 0.0959
vn -0.1214 -0.9820 0.1447
vn -0.1592 0.0001 -0.9872
vn 0.1662 -0.9814 -0.0959
vn 0.9291 -0.0001 0.3697
vn 0.0423 -0.9719 0.2316
vn -0.9291 0.0000 0.3698
vn -0.3484 -0.0001 0.9373
vn -0.0818 -0.9788 -0.1875
vn -0.0647 -0.9826 -0.1742
vn 0.3485 -0.0001 0.9373
vn 0.0636 -0.9825 -0.1748
vn 0.6088 0.0000 -0.7934
vn 0.0648 -0.9826 0.1741
vn -0.6088 0.0001 -0.7934
vn -0.0630 0.0328 0.9975
vn -0.0290 -0.9833 -0.1797
vn 0.0859 -0.9491 -0.3029
vn -0.0636 -0.9825 0.1748
vn -0.0859 -0.9491 0.3029
vn 0.1214 -0.9820 -0.1447
vn 0.0818 -0.9787 0.1883
usemtl wire_181181181.001
s off
f 1/1/1 21/2/1 5/3/1
f 1/1/1 7/4/1 2/5/1
f 1/1/1 9/6/1 6/7/1
f 1/1/1 11/8/1 8/9/1
f 1/1/1 13/10/1 10/11/1
f 1/1/1 15/12/1 12/13/1
f 1/1/1 17/14/1 14/15/1
f 1/1/1 19/16/1 16/17/1
f 1/1/1 20/18/1 18/19/1
f 21/2/2 34/20/2 5/3/2
f 2/5/3 3/21/3 21/2/3
f 7/4/4 4/22/4 2/5/4
f 6/23/5 24/24/5 7/4/5
f 9/6/6 49/25/6 6/7/6
f 8/9/7 38/26/7 9/6/7
f 8/9/8 41/27/8 25/28/8
f 10/11/9 41/27/9 11/8/9
f 13/10/10 26/29/10 10/11/10
f 12/13/11 44/30/11 13/10/11
f 12/13/12 47/31/12 27/32/12
f 15/12/13 28/33/13 47/31/13
f 17/14/14 28/33/14 14/15/14
f 16/17/15 50/34/15 17/14/15
f 19/16/16 29/35/16 16/17/16
f 18/19/17 53/36/17 19/16/17
f 20/18/18 32/37/18 18/19/18
f 5/3/19 33/38/19 20/18/19
f 34/20/2 104/39/2 35/40/2
f 4/22/3 104/39/3 3/21/3
f 24/24/4 105/41/4 4/22/4
f 49/42/20 36/43/20 24/24/20
f 38/26/6 37/44/6 49/25/6
f 25/28/7 39/45/7 38/26/7
f 41/27/8 40/46/8 25/28/8
f 26/29/9 42/47/9 41/27/9
f 44/30/10 43/48/10 26/29/10
f 27/32/11 45/49/11 44/30/11
f 47/31/12 46/50/12 27/32/12
f 28/33/13 48/51/13 47/31/13
f 50/34/14 101/52/14 28/33/14
f 29/35/15 51/53/15 50/34/15
f 53/36/16 52/54/16 29/35/16
f 32/37/17 54/55/17 53/36/17
f 33/38/18 55/56/18 32/37/18
f 34/20/19 56/57/19 33/38/19
f 35/40/21 107/58/21 57/59/21
f 104/39/3 108/60/3 107/58/3
f 36/43/4 108/60/4 105/41/4
f 37/61/5 60/62/5 36/43/5
f 37/44/6 62/63/6 61/64/6
f 40/46/7 62/63/7 39/45/7
f 42/47/8 63/65/8 40/46/8
f 43/48/9 64/66/9 42/47/9
f 45/49/22 65/67/22 43/48/22
f 45/49/23 67/68/23 66/69/23
f 46/50/12 68/70/12 67/68/12
f 101/52/24 68/70/24 48/51/24
f 101/52/14 70/71/14 69/72/14
f 52/54/15 70/71/15 51/53/15
f 52/54/16 72/73/16 71/74/16
f 55/56/17 72/73/17 54/55/17
f 56/57/18 73/75/18 55/56/18
f 35/40/25 74/76/25 56/57/25
f 57/59/26 102/77/26 22/78/26
f 107/58/27 103/79/27 102/77/27
f 60/62/4 103/79/4 108/60/4
f 61/80/5 58/81/5 60/62/5
f 62/63/6 75/82/6 61/64/6
f 62/63/7 77/83/7 76/84/7
f 64/66/8 77/83/8 63/65/8
f 65/67/28 78/85/28 64/66/28
f 66/69/29 79/86/29 65/67/29
f 66/69/30 81/87/30 80/88/30
f 67/68/12 82/89/12 81/87/12
f 69/72/24 82/89/24 68/70/24
f 70/71/14 83/90/14 69/72/14
f 71/74/15 84/91/15 70/71/15
f 71/74/16 86/92/16 85/93/16
f 73/75/17 86/92/17 72/73/17
f 74/76/31 87/94/31 73/75/31
f 57/59/32 23/95/32 74/76/32
f 102/77/33 88/96/33 22/78/33
f 103/79/27 109/97/27 102/77/27
f 58/81/34 110/98/34 103/79/34
f 75/99/20 59/100/20 58/81/20
f 76/84/6 89/101/6 75/82/6
f 77/83/7 90/102/7 76/84/7
f 78/85/8 91/103/8 77/83/8
f 78/85/35 92/104/35 30/105/35
f 79/86/36 93/106/36 92/104/36
f 81/87/37 93/106/37 80/88/37
f 82/89/12 106/107/12 81/87/12
f 83/90/13 94/108/13 82/89/13
f 84/91/14 95/109/14 83/90/14
f 85/93/15 96/110/15 84/91/15
f 86/92/16 97/111/16 85/93/16
f 87/94/17 98/112/17 86/92/17
f 87/94/38 100/113/38 99/114/38
f 23/95/39 88/96/39 100/113/39
f 100/113/40 109/97/40 31/115/40
f 31/115/40 110/98/40 59/100/40
f 31/115/40 89/101/40 90/102/40
f 31/115/40 91/103/40 30/105/40
f 31/115/40 92/104/40 93/106/40
f 31/115/40 106/107/40 94/108/40
f 31/115/40 95/109/40 96/110/40
f 31/115/40 97/111/40 98/112/40
f 31/115/40 99/114/40 100/113/40
f 99/114/41 126/116/41 100/113/41
f 90/102/42 117/117/42 91/103/42
f 110/98/43 128/118/43 129/119/43
f 59/100/44 129/119/44 113/120/44
f 31/115/45 128/118/45 109/97/45
f 96/110/46 123/121/46 97/111/46
f 94/108/47 127/122/47 120/123/47
f 31/115/48 122/124/48 96/110/48
f 30/105/49 118/125/49 92/104/49
f 31/115/50 116/126/50 90/102/50
f 31/115/51 111/127/51 30/105/51
f 90/102/52 115/128/52 116/126/52
f 100/113/53 114/129/53 88/96/53
f 98/112/54 125/130/54 99/114/54
f 31/115/55 120/123/55 94/108/55
f 96/110/56 121/131/56 122/124/56
f 31/115/57 124/132/57 98/112/57
f 91/103/58 111/127/58 30/105/58
f 31/115/59 113/120/59 59/100/59
f 31/115/60 126/116/60 112/133/60
f 97/111/61 124/132/61 98/112/61
f 106/107/62 119/134/62 127/122/62
f 89/135/63 113/120/63 115/136/63
f 31/115/64 119/134/64 93/106/64
f 109/97/65 114/129/65 128/118/65
f 95/109/66 120/123/66 121/131/66
f 92/104/67 119/134/67 93/106/67
f 74/76/68 132/137/68 57/59/68
f 66/69/69 137/138/69 134/139/69
f 65/67/70 136/140/70 133/141/70
f 23/95/71 130/142/71 22/78/71
f 57/59/72 130/142/72 22/78/72
f 66/69/73 133/141/73 134/139/73
f 74/76/74 131/143/74 135/144/74
f 80/88/75 136/140/75 137/138/75
f 1/1/1 2/5/1 21/2/1
f 1/1/1 6/23/1 7/4/1
f 1/1/1 8/9/1 9/6/1
f 1/1/1 10/11/1 11/8/1
f 1/1/1 12/13/1 13/10/1
f 1/1/1 14/15/1 15/12/1
f 1/1/1 16/17/1 17/14/1
f 1/1/1 18/19/1 19/16/1
f 1/1/1 5/3/1 20/18/1
f 21/2/2 3/21/2 34/20/2
f 2/5/3 4/22/3 3/21/3
f 7/4/4 24/24/4 4/22/4
f 6/23/20 49/42/20 24/24/20
f 9/6/6 38/26/6 49/25/6
f 8/9/7 25/28/7 38/26/7
f 8/9/8 11/8/8 41/27/8
f 10/11/9 26/29/9 41/27/9
f 13/10/10 44/30/10 26/29/10
f 12/13/11 27/32/11 44/30/11
f 12/13/12 15/12/12 47/31/12
f 15/12/24 14/15/24 28/33/24
f 17/14/14 50/34/14 28/33/14
f 16/17/15 29/35/15 50/34/15
f 19/16/16 53/36/16 29/35/16
f 18/19/17 32/37/17 53/36/17
f 20/18/18 33/38/18 32/37/18
f 5/3/19 34/20/19 33/38/19
f 34/20/2 3/21/2 104/39/2
f 4/22/3 105/41/3 104/39/3
f 24/24/4 36/43/4 105/41/4
f 49/42/5 37/61/5 36/43/5
f 38/26/6 39/45/6 37/44/6
f 25/28/7 40/46/7 39/45/7
f 41/27/8 42/47/8 40/46/8
f 26/29/9 43/48/9 42/47/9
f 44/30/10 45/49/10 43/48/10
f 27/32/11 46/50/11 45/49/11
f 47/31/12 48/51/12 46/50/12
f 28/33/24 101/52/24 48/51/24
f 50/34/14 51/53/14 101/52/14
f 29/35/15 52/54/15 51/53/15
f 53/36/16 54/55/16 52/54/16
f 32/37/17 55/56/17 54/55/17
f 33/38/18 56/57/18 55/56/18
f 34/20/19 35/40/19 56/57/19
f 35/40/2 104/39/2 107/58/2
f 104/39/3 105/41/3 108/60/3
f 36/43/4 60/62/4 108/60/4
f 37/61/5 61/80/5 60/62/5
f 37/44/6 39/45/6 62/63/6
f 40/46/7 63/65/7 62/63/7
f 42/47/8 64/66/8 63/65/8
f 43/48/76 65/67/76 64/66/76
f 45/49/77 66/69/77 65/67/77
f 45/49/11 46/50/11 67/68/11
f 46/50/12 48/51/12 68/70/12
f 101/52/24 69/72/24 68/70/24
f 101/52/14 51/53/14 70/71/14
f 52/54/15 71/74/15 70/71/15
f 52/54/16 54/55/16 72/73/16
f 55/56/17 73/75/17 72/73/17
f 56/57/78 74/76/78 73/75/78
f 35/40/79 57/59/79 74/76/79
f 57/59/80 107/58/80 102/77/80
f 107/58/81 108/60/81 103/79/81
f 60/62/34 58/81/34 103/79/34
f 61/80/20 75/99/20 58/81/20
f 62/63/6 76/84/6 75/82/6
f 62/63/7 63/65/7 77/83/7
f 64/66/8 78/85/8 77/83/8
f 65/67/82 79/86/82 78/85/82
f 66/69/83 80/88/83 79/86/83
f 66/69/84 67/68/84 81/87/84
f 67/68/12 68/70/12 82/89/12
f 69/72/13 83/90/13 82/89/13
f 70/71/14 84/91/14 83/90/14
f 71/74/15 85/93/15 84/91/15
f 71/74/16 72/73/16 86/92/16
f 73/75/17 87/94/17 86/92/17
f 74/76/85 23/95/85 87/94/85
f 57/59/86 22/78/86 23/95/86
f 102/77/87 109/97/87 88/96/87
f 103/79/27 110/98/27 109/97/27
f 58/81/34 59/100/34 110/98/34
f 75/99/20 89/135/20 59/100/20
f 76/84/6 90/102/6 89/101/6
f 77/83/7 91/103/7 90/102/7
f 78/85/8 30/105/8 91/103/8
f 78/85/88 79/86/88 92/104/88
f 79/86/89 80/88/89 93/106/89
f 81/87/90 106/107/90 93/106/90
f 82/89/12 94/108/12 106/107/12
f 83/90/24 95/109/24 94/108/24
f 84/91/14 96/110/14 95/109/14
f 85/93/15 97/111/15 96/110/15
f 86/92/16 98/112/16 97/111/16
f 87/94/91 99/114/91 98/112/91
f 87/94/92 23/95/92 100/113/92
f 23/95/93 22/78/93 88/96/93
f 100/113/40 88/96/40 109/97/40
f 31/115/40 109/97/40 110/98/40
f 31/115/40 59/145/40 89/101/40
f 31/115/40 90/102/40 91/103/40
f 31/115/40 30/105/40 92/104/40
f 31/115/40 93/106/40 106/107/40
f 31/115/40 94/108/40 95/109/40
f 31/115/40 96/110/40 97/111/40
f 31/115/40 98/112/40 99/114/40
f 99/114/94 125/130/94 126/116/94
f 90/102/95 116/126/95 117/117/95
f 110/98/96 109/97/96 128/118/96
f 59/100/97 110/98/97 129/119/97
f 31/115/98 112/133/98 128/118/98
f 96/110/46 122/124/46 123/121/46
f 94/108/99 106/107/99 127/122/99
f 31/115/100 112/133/100 122/124/100
f 30/105/101 111/127/101 118/125/101
f 31/115/102 112/133/102 116/126/102
f 31/115/103 112/133/103 111/127/103
f 90/102/52 89/101/52 115/128/52
f 100/113/104 126/116/104 114/129/104
f 98/112/105 124/132/105 125/130/105
f 31/115/106 112/133/106 120/123/106
f 96/110/107 95/109/107 121/131/107
f 31/115/108 112/133/108 124/132/108
f 91/103/109 117/117/109 111/127/109
f 31/115/110 112/133/110 113/120/110
f 31/115/111 100/113/111 126/116/111
f 97/111/112 123/121/112 124/132/112
f 106/107/113 93/106/113 119/134/113
f 89/135/114 59/100/114 113/120/114
f 31/115/64 112/133/64 119/134/64
f 109/97/115 88/96/115 114/129/115
f 95/109/116 94/108/116 120/123/116
f 92/104/117 118/125/117 119/134/117
f 74/76/68 135/144/68 132/137/68
f 66/69/69 80/88/69 137/138/69
f 65/67/70 79/86/70 136/140/70
f 23/95/71 131/143/71 130/142/71
f 57/59/72 132/137/72 130/142/72
f 66/69/73 65/67/73 133/141/73
f 74/76/74 23/95/74 131/143/74
f 80/88/75 79/86/75 136/140/75
