# Blender v2.91.2 OBJ File: ''
# www.blender.org
mtllib Shovel.mtl
o Cube
v 0.168553 0.198112 -0.168553
v 0.561195 0.075295 -0.248084
v 0.168553 0.198112 0.168553
v 0.561195 0.075295 0.248084
v -0.168553 0.198112 -0.168553
v -0.561195 0.075295 -0.248084
v -0.168553 0.198112 0.168553
v -0.561195 0.075295 0.248084
v 0.148248 1.843510 0.168553
v -0.148248 1.843510 0.168553
v 0.148248 1.843510 -0.168553
v -0.148248 1.843510 -0.168553
v 0.479892 1.902671 0.118045
v -0.479892 1.902671 0.118045
v 0.479892 1.902671 -0.118045
v -0.479892 1.902671 -0.118045
v 0.479892 2.883248 0.118045
v -0.479892 2.883248 0.118045
v 0.479892 2.883248 -0.118045
v -0.479892 2.883248 -0.118045
v -0.460825 0.033233 -0.248084
v -0.460825 0.033233 0.248084
v 0.460825 0.033233 -0.248084
v 0.460825 0.033233 0.248084
v 0.580866 1.862812 -0.142883
v 0.580866 1.862812 0.142883
v -0.580866 1.862812 0.142883
v -0.580866 1.862812 -0.142883
v 0.580866 3.049711 0.142883
v -0.580866 3.049711 0.142883
v 0.580866 3.049711 -0.142883
v -0.580866 3.049711 -0.142883
v 0.442962 3.263059 0.142883
v -0.442962 3.263059 0.142883
v 0.442962 3.263059 -0.142883
v -0.442962 3.263059 -0.142883
vt 0.625000 0.250000
vt 0.625000 0.500000
vt 0.625000 0.500000
vt 0.625000 0.750000
vt 0.375000 1.000000
vt 0.375000 0.750000
vt 0.625000 0.000000
vt 0.375000 0.250000
vt 0.375000 0.000000
vt 0.375000 1.000000
vt 0.375000 0.750000
vt 0.375000 0.500000
vt 0.625000 0.250000
vt 0.625000 0.500000
vt 0.625000 1.000000
vt 0.625000 1.000000
vt 0.625000 0.750000
vt 0.625000 0.250000
vt 0.625000 0.500000
vt 0.625000 0.500000
vt 0.625000 0.750000
vt 0.625000 0.000000
vt 0.625000 0.250000
vt 0.625000 1.000000
vt 0.625000 0.000000
vt 0.625000 0.250000
vt 0.625000 0.750000
vt 0.625000 0.750000
vt 0.625000 0.750000
vt 0.625000 1.000000
vt 0.375000 0.500000
vt 0.125000 0.750000
vt 0.125000 0.500000
vt 0.375000 0.000000
vt 0.375000 0.250000
vt 0.625000 0.250000
vt 0.625000 1.000000
vt 0.625000 0.500000
vt 0.625000 0.000000
vt 0.625000 0.250000
vt 0.625000 0.000000
vt 0.875000 0.500000
vt 0.625000 0.750000
vt 0.625000 0.500000
vt 0.625000 1.000000
vt 0.625000 1.000000
vt 0.625000 0.000000
vt 0.875000 0.750000
vn 0.0000 0.0000 -1.0000
vn 0.0000 0.5435 0.8394
vn -0.2985 0.9544 0.0000
vn 0.0000 -0.0000 1.0000
vn 0.2985 0.9544 0.0000
vn 0.0000 0.5435 -0.8394
vn 0.0000 0.6493 -0.7605
vn -0.9999 0.0123 0.0000
vn 0.9999 0.0123 0.0000
vn 0.0000 -0.1476 -0.9891
vn 0.1756 -0.9845 0.0000
vn -0.1756 -0.9845 0.0000
vn 0.0000 0.6493 0.7605
vn 0.3672 -0.9302 0.0000
vn -0.2389 0.0000 0.9711
vn 0.0000 -1.0000 0.0000
vn -0.3865 -0.9223 0.0000
vn 0.3865 -0.9223 0.0000
vn 0.2389 0.0000 -0.9711
vn 0.0000 -0.1476 0.9891
vn -0.3672 -0.9302 0.0000
vn -0.2389 0.0000 -0.9711
vn 1.0000 0.0000 0.0000
vn -0.8398 0.5429 0.0000
vn -1.0000 0.0000 0.0000
vn 0.0000 1.0000 0.0000
vn 0.8398 0.5429 0.0000
vn 0.2389 0.0000 0.9711
usemtl Material
s off
f 5/1/1 11/2/1 1/3/1
f 3/4/2 8/5/2 4/6/2
f 7/7/3 6/8/3 8/9/3
f 4/6/4 22/10/4 24/11/4
f 1/3/5 4/6/5 2/12/5
f 5/1/6 2/12/6 6/8/6
f 12/13/7 15/14/7 11/2/7
f 3/4/4 10/15/4 7/16/4
f 7/7/8 12/13/8 5/1/8
f 1/3/9 9/17/9 3/4/9
f 20/18/10 31/19/10 19/20/10
f 11/2/11 13/21/11 9/17/11
f 10/22/12 16/23/12 12/13/12
f 9/17/13 14/24/13 10/15/13
f 14/25/14 28/26/14 16/23/14
f 17/27/15 26/28/15 29/29/15
f 13/21/4 18/30/4 14/24/4
f 16/23/1 19/20/1 15/14/1
f 23/31/16 22/32/16 21/33/16
f 6/8/17 22/34/17 8/9/17
f 4/6/18 23/31/18 2/12/18
f 6/8/1 23/31/1 21/35/1
f 20/18/19 28/26/19 32/36/19
f 17/27/20 30/37/20 18/30/20
f 15/14/21 26/28/21 13/21/21
f 19/20/22 25/38/22 15/14/22
f 25/38/23 29/29/23 26/28/23
f 30/39/24 36/40/24 32/36/24
f 27/41/25 32/36/25 28/26/25
f 36/42/26 33/43/26 35/44/26
f 29/29/4 34/45/4 30/37/4
f 32/36/1 35/44/1 31/19/1
f 31/19/27 33/43/27 29/29/27
f 18/30/28 27/46/28 14/24/28
f 5/1/1 12/13/1 11/2/1
f 3/4/2 7/16/2 8/5/2
f 7/7/3 5/1/3 6/8/3
f 4/6/4 8/5/4 22/10/4
f 1/3/5 3/4/5 4/6/5
f 5/1/6 1/3/6 2/12/6
f 12/13/7 16/23/7 15/14/7
f 3/4/4 9/17/4 10/15/4
f 7/7/8 10/22/8 12/13/8
f 1/3/9 11/2/9 9/17/9
f 20/18/10 32/36/10 31/19/10
f 11/2/11 15/14/11 13/21/11
f 10/22/12 14/25/12 16/23/12
f 9/17/13 13/21/13 14/24/13
f 14/25/14 27/41/14 28/26/14
f 17/27/15 13/21/15 26/28/15
f 13/21/4 17/27/4 18/30/4
f 16/23/1 20/18/1 19/20/1
f 23/31/16 24/11/16 22/32/16
f 6/8/17 21/35/17 22/34/17
f 4/6/18 24/11/18 23/31/18
f 6/8/1 2/12/1 23/31/1
f 20/18/19 16/23/19 28/26/19
f 17/27/20 29/29/20 30/37/20
f 15/14/21 25/38/21 26/28/21
f 19/20/22 31/19/22 25/38/22
f 25/38/23 31/19/23 29/29/23
f 30/39/24 34/47/24 36/40/24
f 27/41/25 30/39/25 32/36/25
f 36/42/26 34/48/26 33/43/26
f 29/29/4 33/43/4 34/45/4
f 32/36/1 36/40/1 35/44/1
f 31/19/27 35/44/27 33/43/27
f 18/30/28 30/37/28 27/46/28
