# Blender v2.91.2 OBJ File: 'Spear.blend'
# www.blender.org
mtllib Spear.mtl
o Spear_Cylinder001
v 0.015748 -0.835799 0.061680
v 0.104637 -0.835799 -0.012904
v 0.124790 0.372478 0.021994
v 0.104637 0.372478 -0.012903
v 0.131785 -0.835799 0.061680
v 0.035902 -0.835799 -0.052590
v 0.073767 -0.835799 -0.038812
v -0.042270 -0.835799 -0.038812
v -0.004397 -0.835799 -0.052590
v -0.093293 -0.835799 0.021994
v -0.073140 -0.835799 -0.012904
v -0.093293 -0.835799 0.101367
v -0.100289 -0.835799 0.061680
v -0.042270 -0.835799 0.162173
v -0.073140 -0.835799 0.136273
v 0.035902 -0.835799 0.175959
v -0.004397 -0.835799 0.175959
v 0.104637 -0.835799 0.136273
v 0.073767 -0.835799 0.162173
v 0.124790 -0.835799 0.101367
v 0.124790 -0.835799 0.021994
v 0.131785 5.144336 0.061681
v 0.124790 5.144336 0.101367
v 0.073767 0.372478 -0.038812
v -0.042271 0.372478 -0.038812
v -0.093294 0.372478 0.021994
v -0.093294 0.372478 0.101367
v -0.042271 0.372478 0.162173
v 0.035902 0.372478 0.175959
v -0.073141 5.205584 -0.012903
v 0.015748 5.205584 0.061680
v 0.104637 0.372478 0.136272
v 0.124790 0.372478 0.101367
v 0.131785 0.372478 0.061681
v 0.131785 1.580755 0.061680
v 0.073767 1.580755 -0.038812
v 0.035902 1.580755 -0.052590
v -0.004398 0.372478 -0.052590
v -0.004398 1.580755 -0.052590
v -0.042271 1.580755 -0.038812
v -0.073140 0.372478 -0.012903
v -0.073140 1.580755 -0.012903
v -0.093294 1.580755 0.021994
v -0.100289 0.372478 0.061681
v -0.100289 1.580755 0.061680
v -0.093294 1.580755 0.101367
v -0.073140 0.372478 0.136272
v -0.073140 1.580755 0.136272
v 0.035902 0.372478 -0.052590
v -0.004398 0.372478 0.175959
v -0.004398 1.580755 0.175959
v 0.035902 1.580755 0.175959
v 0.073767 0.372478 0.162172
v 0.073767 1.580755 0.162172
v 0.104637 1.580755 0.136272
v 0.124790 1.580755 0.101367
v 0.131785 2.789030 0.061680
v 0.073767 3.997306 -0.038812
v 0.073767 5.205584 -0.038811
v 0.073767 2.789030 -0.038812
v 0.035901 2.789030 -0.052590
v -0.004398 2.789030 -0.052590
v -0.042271 2.789030 -0.038812
v -0.073141 2.789030 -0.012904
v -0.093294 2.789030 0.021994
v -0.100289 2.789030 0.061680
v -0.093294 2.789030 0.101367
v -0.073141 2.789030 0.136273
v -0.042271 2.789030 0.162173
v -0.004398 2.789030 0.175959
v 0.035901 2.789030 0.175959
v 0.073767 2.789030 0.162173
v 0.104636 2.789030 0.136273
v 0.124790 2.789030 0.101367
v 0.035901 3.997306 -0.052590
v -0.004398 3.997306 -0.052590
v -0.042271 3.997306 -0.038812
v -0.073141 3.997306 -0.012904
v -0.093294 5.144336 0.021994
v -0.100289 5.144336 0.061681
v -0.093294 3.997306 0.101367
v -0.073141 3.997306 0.136272
v -0.042271 3.997306 0.162173
v -0.004398 3.997306 0.175959
v 0.035901 3.997306 0.175959
v 0.073767 3.997306 0.162172
v 0.104636 3.997306 0.136272
v 0.264720 5.205584 0.061681
v 0.035901 5.205584 -0.052590
v -0.004398 5.205584 -0.052590
v -0.042271 5.205584 -0.038811
v -0.218217 5.205584 0.046914
v -0.233227 5.205584 0.061681
v -0.073141 5.205584 0.136272
v -0.042271 5.205584 0.162172
v -0.004398 5.205584 0.175959
v 0.035901 5.205584 0.175959
v 0.073767 5.205584 0.162172
v 0.104644 5.205584 0.136272
v 0.249712 5.205584 0.076448
v -0.042271 1.580755 0.162172
v 0.124790 3.997306 0.021994
v 0.104644 3.997306 -0.012904
v 0.124790 1.580755 0.021994
v 0.104637 1.580755 -0.012903
v -0.093294 5.205584 0.101367
v 0.124790 2.789030 0.021994
v 0.104636 2.789030 -0.012904
v 0.124790 5.205584 0.021994
v 0.104644 5.205584 -0.012903
v 0.008384 5.995583 0.058944
v 0.015749 5.995583 0.061682
v 0.020557 5.995583 0.057993
v 0.036381 5.995583 0.061682
v 0.017419 5.995583 0.057487
v 0.014080 5.995583 0.057487
v 0.010942 5.995583 0.057993
v -0.003637 5.995583 0.061139
v -0.004880 5.995583 0.061682
v 0.008384 5.995583 0.064420
v 0.010942 5.995583 0.065371
v 0.014080 5.995583 0.065877
v 0.017419 5.995583 0.065877
v 0.020557 5.995583 0.065371
v 0.023116 5.995583 0.064420
v 0.035137 5.995583 0.062224
v 0.006714 5.995583 0.063139
v 0.024785 5.995583 0.060225
v 0.023116 5.995583 0.058944
vt 0.500000 0.000000
vt 0.805600 0.000000
vt 0.750000 0.000000
vt 0.916700 0.000000
vt 0.861100 0.000000
vt 0.027800 0.000000
vt -0.027800 0.000000
vt 0.138900 0.000000
vt 0.083300 0.000000
vt 0.250000 0.000000
vt 0.194400 0.000000
vt 0.361100 0.000000
vt 0.305600 0.000000
vt 0.472200 0.000000
vt 0.416700 0.000000
vt 0.583300 0.000000
vt 0.527800 0.000000
vt 0.694400 0.000000
vt 0.638900 0.000000
vt 0.750000 0.200000
vt 0.805600 0.200000
vt 0.861100 0.200000
vt 0.972200 0.000000
vt 0.916700 0.200000
vt -0.027800 0.200000
vt 0.027800 0.200000
vt 0.138900 0.200000
vt 0.083300 0.200000
vt 0.194400 0.200000
vt 0.250000 0.200000
vt 0.361100 0.200000
vt 0.305600 0.200000
vt 0.416700 0.200000
vt 0.472200 0.200000
vt 0.527800 0.200000
vt 0.583300 0.200000
vt 0.638900 0.200000
vt 0.694400 0.200000
vt 0.805600 0.400000
vt 0.750000 0.400000
vt 0.861100 0.400000
vt 0.972200 0.200000
vt 0.916700 0.400000
vt -0.027800 0.400000
vt 0.027800 0.400000
vt 0.083300 0.400000
vt 0.138900 0.400000
vt 0.194400 0.400000
vt 0.250000 0.400000
vt 0.305600 0.400000
vt 0.361100 0.400000
vt 0.416700 0.400000
vt 0.472200 0.400000
vt 0.527800 0.400000
vt 0.583300 0.400000
vt 0.638900 0.400000
vt 0.694400 0.400000
vt 0.750000 0.600000
vt 0.805600 0.600000
vt 0.861100 0.600000
vt 0.972200 0.400000
vt 0.916700 0.600000
vt 0.027800 0.600000
vt -0.027800 0.600000
vt 0.083300 0.600000
vt 0.138900 0.600000
vt 0.194400 0.600000
vt 0.250000 0.600000
vt 0.305600 0.600000
vt 0.361100 0.600000
vt 0.472200 0.600000
vt 0.416700 0.600000
vt 0.583300 0.600000
vt 0.527800 0.600000
vt 0.638900 0.600000
vt 0.694400 0.600000
vt 0.805600 0.800000
vt 0.750000 0.800000
vt 0.861100 0.800000
vt 0.972200 0.600000
vt 0.916700 0.800000
vt -0.027800 0.800000
vt 0.083300 0.800000
vt 0.027800 0.800000
vt 0.138900 0.800000
vt 0.194400 0.800000
vt 0.305600 0.800000
vt 0.250000 0.800000
vt 0.361100 0.800000
vt 0.416700 0.800000
vt 0.472200 0.800000
vt 0.583300 0.800000
vt 0.527800 0.800000
vt 0.638900 0.800000
vt 0.694400 0.800000
vt 0.805600 1.000000
vt 0.750000 1.000000
vt 0.861100 1.000000
vt 0.972200 0.800000
vt 0.916700 1.000000
vt -0.027800 1.000000
vt 0.027800 1.000000
vt 0.083300 1.000000
vt 0.138900 1.000000
vt 0.194400 1.000000
vt 0.305600 1.000000
vt 0.250000 1.000000
vt 0.361100 1.000000
vt 0.416700 1.000000
vt 0.472200 1.000000
vt 0.527800 1.000000
vt 0.583300 1.000000
vt 0.638900 1.000000
vt 0.694400 1.000000
vt 0.500000 1.000000
vt 0.694400 1.000000
vt 0.083300 1.000000
vt 0.805600 1.000000
vt 0.861100 1.000000
vt 0.916700 1.000000
vt 0.527800 1.000000
vt 0.305600 1.000000
vt 0.361100 1.000000
vt 0.472200 1.000000
vt 0.194400 1.000000
vt 0.027800 1.000000
vt 0.138900 1.000000
vt 0.750000 1.000000
vt 0.638900 1.000000
vt 0.416700 1.000000
vt 0.583300 1.000000
vt 0.500000 1.000000
vt 0.250000 1.000000
vt 0.972200 1.000000
vt 0.972200 1.000000
vt -0.019700 1.000000
vt -0.027800 1.000000
vn 0.0000 -1.0000 -0.0000
vn 0.9848 0.0000 -0.1736
vn 0.8660 0.0000 -0.5001
vn 0.6429 0.0000 -0.7660
vn 0.3419 0.0000 -0.9397
vn 0.0000 -0.0000 -1.0000
vn -0.3419 -0.0000 -0.9397
vn -0.6429 -0.0000 -0.7660
vn -0.8660 0.0000 -0.5001
vn -0.9848 -0.0000 -0.1736
vn -0.9848 -0.0000 0.1736
vn -0.8660 -0.0000 0.5000
vn -0.6428 0.0000 0.7661
vn -0.3421 -0.0000 0.9397
vn 0.0000 -0.0000 1.0000
vn 0.3421 -0.0000 0.9397
vn 0.6427 0.0000 0.7661
vn 0.8660 0.0000 0.5000
vn 0.9848 0.0000 0.1736
vn 0.3420 -0.0000 -0.9397
vn -0.6427 -0.0000 0.7661
vn 0.8661 0.0000 -0.5000
vn 0.2348 -0.5096 -0.8278
vn 0.6428 0.0000 -0.7661
vn -0.4516 -0.8887 -0.0796
vn -0.2348 -0.5096 0.8278
vn 0.8661 -0.0000 0.4999
vn 0.4516 -0.8887 0.0796
vn 0.0000 1.0000 0.0000
vn -0.3785 -0.1193 -0.9179
vn 0.3387 -0.1369 0.9309
vn -0.6033 -0.1338 0.7862
vn -0.3451 -0.1370 0.9285
vn -0.3420 0.0022 -0.9397
vn 0.0000 -0.1380 -0.9904
vn 0.6033 -0.1338 -0.7862
vn 0.9848 0.0012 0.1736
vn 0.3785 -0.1193 0.9179
vn -0.9848 -0.0012 0.1736
vn -0.6428 -0.0033 0.7661
vn 0.0000 -0.1380 0.9904
vn -0.6874 -0.1987 -0.6986
vn -0.6368 -0.1348 -0.7592
vn 0.6428 0.0033 0.7660
vn 0.1576 -0.1399 -0.9775
vn 0.8660 -0.0029 -0.5000
vn 0.6370 -0.1348 0.7590
vn -0.8660 0.0029 -0.5000
vn -0.0279 -0.0000 0.9996
vn -0.3389 -0.1369 -0.9308
vn 0.1245 -0.0637 -0.9902
vn -0.1576 -0.1399 0.9775
vn -0.1244 -0.0637 0.9902
vn 0.3451 -0.1370 -0.9285
vn 0.6874 -0.1987 0.6986
vn -0.3538 -0.3724 -0.8580
vn -0.3851 -0.8358 -0.3914
vn 0.6427 -0.0000 0.7662
vn 0.3538 -0.3726 0.8579
vn 0.3851 -0.8358 0.3914
vn -0.1787 -0.1074 -0.9780
vn 0.1576 -0.1399 0.9776
vn -0.8584 -0.1326 0.4955
vn -0.6369 -0.1348 0.7591
vn -0.1592 0.0000 -0.9872
vn 0.8584 -0.1326 -0.4956
vn 0.9291 -0.0000 0.3697
vn 0.1786 -0.1074 0.9780
vn -0.9291 0.0000 0.3697
vn -0.3484 -0.0000 0.9373
vn -0.3965 -0.1241 -0.9096
vn -0.3450 -0.1370 -0.9285
vn 0.3485 -0.0000 0.9373
vn 0.3388 -0.1369 -0.9308
vn 0.6088 0.0000 -0.7933
vn 0.3452 -0.1370 0.9285
vn -0.6088 0.0000 -0.7933
vn -0.0630 0.0009 0.9980
vn -0.1577 -0.1399 -0.9775
vn 0.2720 -0.0786 -0.9591
vn -0.3387 -0.1369 0.9309
vn -0.2720 -0.0786 0.9591
vn 0.6369 -0.1348 -0.7591
vn 0.3964 -0.1241 0.9096
usemtl wire_181181181.001
s off
f 1/1/1 21/2/1 5/3/1
f 1/1/1 7/4/1 2/5/1
f 1/1/1 9/6/1 6/7/1
f 1/1/1 11/8/1 8/9/1
f 1/1/1 13/10/1 10/11/1
f 1/1/1 15/12/1 12/13/1
f 1/1/1 17/14/1 14/15/1
f 1/1/1 19/16/1 16/17/1
f 1/1/1 20/18/1 18/19/1
f 21/2/2 34/20/2 5/3/2
f 2/5/3 3/21/3 21/2/3
f 7/4/4 4/22/4 2/5/4
f 6/23/5 24/24/5 7/4/5
f 9/6/6 49/25/6 6/7/6
f 8/9/7 38/26/7 9/6/7
f 8/9/8 41/27/8 25/28/8
f 10/11/9 41/27/9 11/8/9
f 13/10/10 26/29/10 10/11/10
f 12/13/11 44/30/11 13/10/11
f 12/13/12 47/31/12 27/32/12
f 15/12/13 28/33/13 47/31/13
f 17/14/14 28/33/14 14/15/14
f 16/17/15 50/34/15 17/14/15
f 19/16/16 29/35/16 16/17/16
f 18/19/17 53/36/17 19/16/17
f 20/18/18 32/37/18 18/19/18
f 5/3/19 33/38/19 20/18/19
f 34/20/2 104/39/2 35/40/2
f 4/22/3 104/39/3 3/21/3
f 24/24/4 105/41/4 4/22/4
f 49/42/20 36/43/20 24/24/20
f 38/26/6 37/44/6 49/25/6
f 25/28/7 39/45/7 38/26/7
f 41/27/8 40/46/8 25/28/8
f 26/29/9 42/47/9 41/27/9
f 44/30/10 43/48/10 26/29/10
f 27/32/11 45/49/11 44/30/11
f 47/31/12 46/50/12 27/32/12
f 28/33/13 48/51/13 47/31/13
f 50/34/14 101/52/14 28/33/14
f 29/35/15 51/53/15 50/34/15
f 53/36/16 52/54/16 29/35/16
f 32/37/17 54/55/17 53/36/17
f 33/38/18 55/56/18 32/37/18
f 34/20/19 56/57/19 33/38/19
f 104/39/2 57/58/2 35/40/2
f 105/41/3 107/59/3 104/39/3
f 36/43/4 108/60/4 105/41/4
f 37/61/5 60/62/5 36/43/5
f 37/44/6 62/63/6 61/64/6
f 40/46/7 62/63/7 39/45/7
f 42/47/8 63/65/8 40/46/8
f 43/48/9 64/66/9 42/47/9
f 45/49/10 65/67/10 43/48/10
f 46/50/11 66/68/11 45/49/11
f 48/51/12 67/69/12 46/50/12
f 101/52/21 68/70/21 48/51/21
f 101/52/14 70/71/14 69/72/14
f 52/54/15 70/71/15 51/53/15
f 52/54/16 72/73/16 71/74/16
f 55/56/17 72/73/17 54/55/17
f 56/57/18 73/75/18 55/56/18
f 35/40/19 74/76/19 56/57/19
f 57/58/2 102/77/2 22/78/2
f 107/59/22 103/79/22 102/77/22
f 60/62/4 103/79/4 108/60/4
f 61/80/5 58/81/5 60/62/5
f 62/63/6 75/82/6 61/64/6
f 62/63/7 77/83/7 76/84/7
f 64/66/8 77/83/8 63/65/8
f 65/67/9 78/85/9 64/66/9
f 66/68/10 79/86/10 65/67/10
f 66/68/11 81/87/11 80/88/11
f 68/70/12 81/87/12 67/69/12
f 69/72/21 82/89/21 68/70/21
f 70/71/14 83/90/14 69/72/14
f 71/74/15 84/91/15 70/71/15
f 71/74/16 86/92/16 85/93/16
f 73/75/17 86/92/17 72/73/17
f 74/76/18 87/94/18 73/75/18
f 57/58/19 23/95/19 74/76/19
f 22/78/23 109/96/23 88/97/23
f 103/79/22 109/96/22 102/77/22
f 58/81/24 110/98/24 103/79/24
f 75/99/20 59/100/20 58/81/20
f 76/84/6 89/101/6 75/82/6
f 77/83/7 90/102/7 76/84/7
f 78/85/8 91/103/8 77/83/8
f 79/86/9 30/104/9 78/85/9
f 80/88/25 92/105/25 79/86/25
f 80/88/26 106/106/26 93/107/26
f 82/89/12 106/106/12 81/87/12
f 83/90/13 94/108/13 82/89/13
f 84/91/14 95/109/14 83/90/14
f 85/93/15 96/110/15 84/91/15
f 86/92/16 97/111/16 85/93/16
f 87/94/17 98/112/17 86/92/17
f 23/95/27 99/113/27 87/94/27
f 22/78/28 100/114/28 23/95/28
f 100/114/29 109/96/29 31/115/29
f 31/115/29 110/98/29 59/100/29
f 31/115/29 89/101/29 90/102/29
f 31/115/29 91/103/29 30/104/29
f 31/115/29 92/105/29 93/107/29
f 31/115/29 106/106/29 94/108/29
f 31/115/29 95/109/29 96/110/29
f 31/115/29 97/111/29 98/112/29
f 31/115/29 99/113/29 100/114/29
f 99/113/30 126/116/30 100/114/30
f 90/102/31 117/117/31 91/103/31
f 110/98/32 128/118/32 129/119/32
f 59/100/33 129/119/33 113/120/33
f 31/115/34 128/118/34 109/96/34
f 96/110/35 123/121/35 97/111/35
f 94/108/36 127/122/36 120/123/36
f 31/115/37 122/124/37 96/110/37
f 30/104/38 118/125/38 92/105/38
f 31/115/39 116/126/39 90/102/39
f 31/115/40 111/127/40 30/104/40
f 89/101/41 116/126/41 90/102/41
f 100/114/42 114/128/42 88/97/42
f 98/112/43 125/129/43 99/113/43
f 31/115/44 120/123/44 94/108/44
f 96/110/45 121/130/45 122/124/45
f 31/115/46 124/131/46 98/112/46
f 91/103/47 111/127/47 30/104/47
f 31/115/48 113/120/48 59/100/48
f 31/115/49 126/116/49 112/132/49
f 97/111/50 124/131/50 98/112/50
f 106/106/51 119/133/51 127/122/51
f 89/134/52 113/120/52 115/135/52
f 31/115/15 119/133/15 93/107/15
f 109/96/53 114/128/53 128/118/53
f 95/109/54 120/123/54 121/130/54
f 92/105/55 119/133/55 93/107/55
f 1/1/1 2/5/1 21/2/1
f 1/1/1 6/23/1 7/4/1
f 1/1/1 8/9/1 9/6/1
f 1/1/1 10/11/1 11/8/1
f 1/1/1 12/13/1 13/10/1
f 1/1/1 14/15/1 15/12/1
f 1/1/1 16/17/1 17/14/1
f 1/1/1 18/19/1 19/16/1
f 1/1/1 5/3/1 20/18/1
f 21/2/2 3/21/2 34/20/2
f 2/5/3 4/22/3 3/21/3
f 7/4/4 24/24/4 4/22/4
f 6/23/20 49/42/20 24/24/20
f 9/6/6 38/26/6 49/25/6
f 8/9/7 25/28/7 38/26/7
f 8/9/8 11/8/8 41/27/8
f 10/11/9 26/29/9 41/27/9
f 13/10/10 44/30/10 26/29/10
f 12/13/11 27/32/11 44/30/11
f 12/13/12 15/12/12 47/31/12
f 15/12/21 14/15/21 28/33/21
f 17/14/14 50/34/14 28/33/14
f 16/17/15 29/35/15 50/34/15
f 19/16/16 53/36/16 29/35/16
f 18/19/17 32/37/17 53/36/17
f 20/18/18 33/38/18 32/37/18
f 5/3/19 34/20/19 33/38/19
f 34/20/2 3/21/2 104/39/2
f 4/22/3 105/41/3 104/39/3
f 24/24/4 36/43/4 105/41/4
f 49/42/5 37/61/5 36/43/5
f 38/26/6 39/45/6 37/44/6
f 25/28/7 40/46/7 39/45/7
f 41/27/8 42/47/8 40/46/8
f 26/29/9 43/48/9 42/47/9
f 44/30/10 45/49/10 43/48/10
f 27/32/11 46/50/11 45/49/11
f 47/31/12 48/51/12 46/50/12
f 28/33/21 101/52/21 48/51/21
f 50/34/14 51/53/14 101/52/14
f 29/35/15 52/54/15 51/53/15
f 53/36/16 54/55/16 52/54/16
f 32/37/17 55/56/17 54/55/17
f 33/38/18 56/57/18 55/56/18
f 34/20/19 35/40/19 56/57/19
f 104/39/2 107/59/2 57/58/2
f 105/41/3 108/60/3 107/59/3
f 36/43/4 60/62/4 108/60/4
f 37/61/5 61/80/5 60/62/5
f 37/44/6 39/45/6 62/63/6
f 40/46/7 63/65/7 62/63/7
f 42/47/8 64/66/8 63/65/8
f 43/48/9 65/67/9 64/66/9
f 45/49/10 66/68/10 65/67/10
f 46/50/11 67/69/11 66/68/11
f 48/51/12 68/70/12 67/69/12
f 101/52/21 69/72/21 68/70/21
f 101/52/14 51/53/14 70/71/14
f 52/54/15 71/74/15 70/71/15
f 52/54/16 54/55/16 72/73/16
f 55/56/17 73/75/17 72/73/17
f 56/57/18 74/76/18 73/75/18
f 35/40/19 57/58/19 74/76/19
f 57/58/2 107/59/2 102/77/2
f 107/59/3 108/60/3 103/79/3
f 60/62/24 58/81/24 103/79/24
f 61/80/20 75/99/20 58/81/20
f 62/63/6 76/84/6 75/82/6
f 62/63/7 63/65/7 77/83/7
f 64/66/8 78/85/8 77/83/8
f 65/67/9 79/86/9 78/85/9
f 66/68/10 80/88/10 79/86/10
f 66/68/11 67/69/11 81/87/11
f 68/70/12 82/89/12 81/87/12
f 69/72/13 83/90/13 82/89/13
f 70/71/14 84/91/14 83/90/14
f 71/74/15 85/93/15 84/91/15
f 71/74/16 72/73/16 86/92/16
f 73/75/17 87/94/17 86/92/17
f 74/76/18 23/95/18 87/94/18
f 57/58/19 22/78/19 23/95/19
f 22/78/2 102/77/2 109/96/2
f 103/79/22 110/98/22 109/96/22
f 58/81/24 59/100/24 110/98/24
f 75/99/20 89/134/20 59/100/20
f 76/84/6 90/102/6 89/101/6
f 77/83/7 91/103/7 90/102/7
f 78/85/8 30/104/8 91/103/8
f 79/86/56 92/105/56 30/104/56
f 80/88/57 93/107/57 92/105/57
f 80/88/11 81/87/11 106/106/11
f 82/89/12 94/108/12 106/106/12
f 83/90/21 95/109/21 94/108/21
f 84/91/14 96/110/14 95/109/14
f 85/93/15 97/111/15 96/110/15
f 86/92/16 98/112/16 97/111/16
f 87/94/58 99/113/58 98/112/58
f 23/95/59 100/114/59 99/113/59
f 22/78/60 88/97/60 100/114/60
f 100/114/29 88/97/29 109/96/29
f 31/115/29 109/96/29 110/98/29
f 31/115/29 59/136/29 89/101/29
f 31/115/29 90/102/29 91/103/29
f 31/115/29 30/104/29 92/105/29
f 31/115/29 93/107/29 106/106/29
f 31/115/29 94/108/29 95/109/29
f 31/115/29 96/110/29 97/111/29
f 31/115/29 98/112/29 99/113/29
f 99/113/61 125/129/61 126/116/61
f 90/102/62 116/126/62 117/117/62
f 110/98/63 109/96/63 128/118/63
f 59/100/64 110/98/64 129/119/64
f 31/115/65 112/132/65 128/118/65
f 96/110/35 122/124/35 123/121/35
f 94/108/66 106/106/66 127/122/66
f 31/115/67 112/132/67 122/124/67
f 30/104/68 111/127/68 118/125/68
f 31/115/69 112/132/69 116/126/69
f 31/115/70 112/132/70 111/127/70
f 89/101/41 115/137/41 116/126/41
f 100/114/71 126/116/71 114/128/71
f 98/112/72 124/131/72 125/129/72
f 31/115/73 112/132/73 120/123/73
f 96/110/74 95/109/74 121/130/74
f 31/115/75 112/132/75 124/131/75
f 91/103/76 117/117/76 111/127/76
f 31/115/77 112/132/77 113/120/77
f 31/115/78 100/114/78 126/116/78
f 97/111/79 123/121/79 124/131/79
f 106/106/80 93/107/80 119/133/80
f 89/134/81 59/100/81 113/120/81
f 31/115/15 112/132/15 119/133/15
f 109/96/82 88/97/82 114/128/82
f 95/109/83 94/108/83 120/123/83
f 92/105/84 118/125/84 119/133/84
