# Blender v2.91.2 OBJ File: 'Weapons.blend'
# www.blender.org
mtllib Sword.mtl
o Sword_Cube.002
v -0.758346 -1.321162 0.749230
v -0.758346 6.992597 0.749230
v -0.758346 -1.321162 -0.749230
v -0.758346 6.992597 -0.749230
v 0.758346 -1.321162 0.749230
v 0.758346 6.992597 0.749230
v 0.758346 -1.321162 -0.749230
v 0.758346 6.992597 -0.749230
v -1.413261 8.103653 0.240338
v -1.413261 8.103653 -0.240338
v 1.413261 8.103653 -0.240338
v 1.413261 8.103653 0.240338
v -1.413261 29.038940 0.240338
v -1.413261 29.038940 -0.240338
v 1.413261 29.038940 -0.240338
v 1.413261 29.038940 0.240338
v -0.207151 31.116768 0.035228
v -0.207151 31.116768 -0.035228
v 0.207151 31.116768 -0.035228
v 0.207151 31.116768 0.035228
v -6.067771 6.041037 1.413261
v -6.067771 6.041037 -1.413261
v 6.067771 6.041037 -1.413261
v 6.067771 6.041037 1.413261
v -6.067771 8.103653 1.413261
v -6.067771 8.103653 -1.413261
v 6.067771 8.103653 -1.413261
v 6.067771 8.103653 1.413261
v -0.758346 6.992597 -1.611514
v 0.758346 6.992597 -1.611514
v 0.758346 6.992597 1.611514
v -0.758346 6.992597 1.611514
v -1.413261 8.103653 -0.516941
v 1.413261 8.103653 -0.516941
v 1.413261 8.103653 0.516941
v -1.413261 8.103653 0.516941
v -1.272910 -2.235254 -1.257609
v -1.272910 -2.235254 1.257609
v 1.272910 -2.235254 -1.257609
v 1.272910 -2.235254 1.257609
vt 0.375000 0.000000
vt 0.625000 0.000000
vt 0.625000 0.250000
vt 0.375000 0.250000
vt 0.625000 0.500000
vt 0.375000 0.500000
vt 0.625000 0.750000
vt 0.375000 0.750000
vt 0.625000 1.000000
vt 0.375000 1.000000
vt 0.375000 0.750000
vt 0.375000 0.500000
vt 0.625000 0.250000
vt 0.625000 0.250000
vt 0.625000 0.250000
vt 0.625000 0.750000
vt 0.625000 0.500000
vt 0.625000 0.500000
vt 0.625000 0.750000
vt 0.625000 0.250000
vt 0.625000 0.250000
vt 0.625000 0.750000
vt 0.625000 0.750000
vt 0.625000 0.750000
vt 0.625000 0.750000
vt 0.625000 0.250000
vt 0.625000 0.000000
vt 0.625000 0.000000
vt 0.625000 0.250000
vt 0.625000 0.000000
vt 0.625000 1.000000
vt 0.625000 1.000000
vt 0.625000 0.500000
vt 0.875000 0.500000
vt 0.875000 0.750000
vt 0.625000 0.750000
vt 0.625000 1.000000
vt 0.625000 0.500000
vt 0.625000 0.500000
vt 0.625000 0.000000
vt 0.625000 0.000000
vt 0.625000 1.000000
vt 0.625000 1.000000
vt 0.625000 0.500000
vt 0.625000 0.500000
vt 0.625000 1.000000
vt 0.625000 1.000000
vt 0.125000 0.500000
vt 0.125000 0.750000
vt 0.375000 1.000000
vt 0.375000 0.250000
vt 0.375000 0.000000
vn -1.0000 0.0000 0.0000
vn 0.0000 0.0000 -1.0000
vn 1.0000 0.0000 0.0000
vn 0.0000 0.0000 1.0000
vn 0.8714 0.4905 0.0000
vn -0.8615 -0.5078 0.0000
vn 0.1606 0.1885 -0.9689
vn -0.1606 0.1885 0.9689
vn 0.8615 -0.5078 0.0000
vn -0.8649 0.5020 0.0000
vn 0.0000 1.0000 0.0000
vn 0.0000 0.0982 0.9952
vn 0.0000 0.0982 -0.9952
vn 0.8649 0.5020 0.0000
vn 0.1606 0.1885 0.9689
vn -0.1764 -0.9843 0.0000
vn -0.1606 0.1885 -0.9689
vn 0.1764 -0.9843 0.0000
vn 0.0000 0.7018 -0.7124
vn 0.0000 0.7018 0.7124
vn 0.0000 -1.0000 0.0000
vn 0.0000 0.4860 0.8739
vn 0.0000 0.4860 -0.8739
vn -0.8714 0.4905 0.0000
usemtl None
s off
f 1/1/1 2/2/1 4/3/1 3/4/1
f 3/4/2 4/3/2 8/5/2 7/6/2
f 7/6/3 8/5/3 6/7/3 5/8/3
f 5/8/4 6/7/4 2/9/4 1/10/4
f 7/6/5 5/8/5 40/11/5 39/12/5
f 4/3/6 10/13/6 33/14/6 29/15/6
f 12/16/3 11/17/3 15/18/3 16/19/3
f 10/13/7 4/3/7 22/20/7 26/21/7
f 12/16/8 6/7/8 24/22/8 28/23/8
f 6/7/9 12/16/9 35/24/9 31/25/9
f 14/26/10 13/27/10 17/28/10 18/29/10
f 10/13/1 9/30/1 13/27/1 14/26/1
f 9/31/4 12/16/4 16/19/4 13/32/4
f 11/17/2 10/13/2 14/26/2 15/18/2
f 19/33/11 18/34/11 17/35/11 20/36/11
f 13/32/12 16/19/12 20/36/12 17/37/12
f 15/18/13 14/26/13 18/29/13 19/33/13
f 16/19/14 15/18/14 19/33/14 20/36/14
f 24/22/3 23/38/3 27/39/3 28/23/3
f 22/20/1 21/40/1 25/41/1 26/21/1
f 11/17/11 12/16/11 28/23/11 27/39/11
f 9/30/11 10/13/11 26/21/11 25/41/11
f 2/9/15 9/31/15 25/42/15 21/43/15
f 6/7/16 8/5/16 23/38/16 24/22/16
f 8/5/17 11/17/17 27/39/17 23/38/17
f 4/3/18 2/2/18 21/40/18 22/20/18
f 30/44/19 29/15/19 33/14/19 34/45/19
f 32/46/20 31/25/20 35/24/20 36/47/20
f 8/5/21 4/3/21 29/15/21 30/44/21
f 9/31/6 2/9/6 32/46/6 36/47/6
f 11/17/9 8/5/9 30/44/9 34/45/9
f 12/16/11 9/31/11 36/47/11 35/24/11
f 10/13/11 11/17/11 34/45/11 33/14/11
f 2/9/21 6/7/21 31/25/21 32/46/21
f 37/48/21 39/12/21 40/11/21 38/49/21
f 5/8/22 1/10/22 38/50/22 40/11/22
f 3/4/23 7/6/23 39/12/23 37/51/23
f 1/1/24 3/4/24 37/51/24 38/52/24
